<svg width="40" height="40" viewBox="0 0 40 40" fill="none" xmlns="http://www.w3.org/2000/svg">
<rect x="-0.000915527" y="0.000244141" width="40" height="40" rx="20" fill="#F5F5F5"/>
<path d="M19.9481 22.5403C16.4981 22.5403 13.5872 23.104 13.5872 25.2798C13.5872 27.4564 16.5169 28.0004 19.9481 28.0004C23.3981 28.0004 26.309 27.4366 26.309 25.2609C26.309 23.0842 23.3793 22.5403 19.9481 22.5403Z" fill="#959895"/>
<path opacity="0.4" d="M19.9481 20.4673C22.2842 20.4673 24.1574 18.5833 24.1574 16.2338C24.1574 13.8833 22.2842 12.0002 19.9481 12.0002C17.612 12.0002 15.7388 13.8833 15.7388 16.2338C15.7388 18.5833 17.612 20.4673 19.9481 20.4673Z" fill="#959895"/>
<path opacity="0.4" d="M29.087 17.2195C29.6914 14.842 27.9194 12.7068 25.663 12.7068C25.4177 12.7068 25.1831 12.7338 24.9538 12.7797C24.9234 12.7869 24.8894 12.8022 24.8715 12.8293C24.8509 12.8635 24.8661 12.9094 24.8885 12.9391C25.5663 13.8955 25.9558 15.0599 25.9558 16.3099C25.9558 17.5077 25.5985 18.6243 24.9718 19.551C24.9073 19.6465 24.9646 19.7753 25.0783 19.7951C25.2359 19.823 25.3971 19.8374 25.5618 19.8419C27.2049 19.8851 28.6796 18.8216 29.087 17.2195Z" fill="#959895"/>
<path d="M30.8084 22.8172C30.5075 22.1724 29.7813 21.7302 28.6773 21.5132C28.1562 21.3853 26.7459 21.2052 25.4342 21.2295C25.4145 21.2322 25.4037 21.2457 25.4019 21.2547C25.3992 21.2673 25.4046 21.289 25.4306 21.3025C26.0368 21.6042 28.38 22.9163 28.0855 25.6837C28.0729 25.8034 28.1687 25.907 28.2878 25.889C28.8645 25.8061 30.3481 25.4855 30.8084 24.4868C31.0627 23.9591 31.0627 23.3458 30.8084 22.8172Z" fill="#959895"/>
<path opacity="0.4" d="M15.0439 12.78C14.8156 12.7331 14.5801 12.707 14.3348 12.707C12.0783 12.707 10.3063 14.8422 10.9116 17.2197C11.3181 18.8218 12.7929 19.8854 14.4359 19.8421C14.6007 19.8376 14.7628 19.8223 14.9195 19.7953C15.0332 19.7755 15.0905 19.6467 15.026 19.5513C14.3992 18.6237 14.042 17.5079 14.042 16.3102C14.042 15.0593 14.4324 13.8949 15.1102 12.9394C15.1317 12.9097 15.1478 12.8637 15.1263 12.8295C15.1084 12.8016 15.0753 12.7872 15.0439 12.78Z" fill="#959895"/>
<path d="M11.3206 21.5129C10.2166 21.73 9.49133 22.1722 9.19048 22.8169C8.93529 23.3456 8.93529 23.9589 9.19048 24.4875C9.65071 25.4853 11.1344 25.8068 11.711 25.8887C11.8301 25.9068 11.925 25.8041 11.9125 25.6834C11.6179 22.9169 13.9612 21.6048 14.5683 21.3031C14.5933 21.2887 14.5987 21.268 14.596 21.2545C14.5942 21.2455 14.5844 21.232 14.5647 21.2302C13.252 21.205 11.8427 21.3851 11.3206 21.5129Z" fill="#959895"/>
</svg>
