<svg width="40" height="40" viewBox="0 0 40 40" fill="none" xmlns="http://www.w3.org/2000/svg">
<rect x="-0.000915527" y="0.000244141" width="40" height="40" rx="20" fill="#F5F5F5"/>
<path opacity="0.4" d="M19.5856 30.0002C19.4617 30.0002 19.3379 29.9718 19.2262 29.914L15.6251 28.0499C14.6032 27.5203 13.8039 26.9261 13.1797 26.2338C11.8136 24.7198 11.0535 22.7762 11.0414 20.7602L10.9991 14.1245C10.9941 13.3587 11.4884 12.6713 12.2273 12.4124L18.8396 10.107C19.2322 9.96681 19.6701 9.96485 20.0698 10.1002L26.7072 12.3271C27.4502 12.5752 27.9526 13.2577 27.9566 14.0225L27.9989 20.6631C28.012 22.6762 27.2781 24.6276 25.9331 26.1583C25.3159 26.8604 24.5236 27.4635 23.5119 28.0028L19.943 29.909C19.8322 29.9689 19.7094 29.9993 19.5856 30.0002Z" fill="#959895"/>
<path d="M18.8183 22.3212C18.625 22.3221 18.4317 22.2525 18.2827 22.1094L16.3659 20.2658C16.0699 19.9795 16.0669 19.5147 16.3598 19.2264C16.6528 18.9371 17.131 18.9342 17.428 19.2196L18.8072 20.5453L22.1747 17.225C22.4687 16.9358 22.9469 16.9328 23.2429 17.2182C23.5399 17.5045 23.5429 17.9703 23.2499 18.2576L19.3508 22.1025C19.2038 22.2476 19.0116 22.3202 18.8183 22.3212Z" fill="#959895"/>
</svg>
