<svg width="40" height="40" viewBox="0 0 40 40" fill="none" xmlns="http://www.w3.org/2000/svg">
<rect x="-0.000915527" y="0.000244141" width="40" height="40" rx="20" fill="#F5F5F5"/>
<path opacity="0.4" d="M21.3042 13.8827V14.0657C20.8135 14.0561 20.3228 14.0561 19.8321 14.0561V13.8923C19.8321 13.2276 19.2728 12.6881 18.6054 12.6881H17.6339C16.525 12.6881 15.6221 11.8018 15.6221 10.7228C15.6221 10.3278 15.9558 10.0002 16.3581 10.0002C16.7703 10.0002 17.0942 10.3278 17.0942 10.7228C17.0942 11.0118 17.3395 11.243 17.6339 11.243H18.6054C20.0873 11.2526 21.2944 12.4376 21.3042 13.8827" fill="#EA6A12"/>
<path fill-rule="evenodd" clip-rule="evenodd" d="M23.1631 14.0829C23.4782 14.0872 23.794 14.0916 24.111 14.0948C27.5163 14.0948 29.9991 16.5225 29.9991 19.8751V24.1814C29.9991 27.534 27.5163 29.9617 24.111 29.9617C22.7469 29.9906 21.3828 30.0002 20.0089 30.0002C18.635 30.0002 17.2513 29.9906 15.8872 29.9617C12.4819 29.9617 9.99908 27.534 9.99908 24.1814V19.8751C9.99908 16.5225 12.4819 14.0948 15.897 14.0948C17.1826 14.0755 18.4976 14.0563 19.8323 14.0563C20.3229 14.0563 20.8136 14.0563 21.3043 14.0659C21.9229 14.0659 22.5416 14.0744 23.1631 14.0829ZM18.8509 22.746H17.8205V23.7672C17.8205 24.1622 17.4868 24.4897 17.0845 24.4897C16.6723 24.4897 16.3484 24.1622 16.3484 23.7672V22.746H15.3082C14.9059 22.746 14.5722 22.4281 14.5722 22.0234C14.5722 21.6285 14.9059 21.3009 15.3082 21.3009H16.3484V20.2894C16.3484 19.8944 16.6723 19.5668 17.0845 19.5668C17.4868 19.5668 17.8205 19.8944 17.8205 20.2894V21.3009H18.8509C19.2533 21.3009 19.5869 21.6285 19.5869 22.0234C19.5869 22.4281 19.2533 22.746 18.8509 22.746ZM23.0217 21.1179H23.1198C23.5221 21.1179 23.8558 20.7999 23.8558 20.3953C23.8558 20.0003 23.5221 19.6728 23.1198 19.6728H23.0217C22.6095 19.6728 22.2856 20.0003 22.2856 20.3953C22.2856 20.7999 22.6095 21.1179 23.0217 21.1179ZM24.6998 24.4319H24.7979C25.2003 24.4319 25.5339 24.114 25.5339 23.7094C25.5339 23.3144 25.2003 22.9868 24.7979 22.9868H24.6998C24.2876 22.9868 23.9638 23.3144 23.9638 23.7094C23.9638 24.114 24.2876 24.4319 24.6998 24.4319Z" fill="#EA6A12"/>
</svg>
