<svg width="40" height="40" viewBox="0 0 40 40" fill="none" xmlns="http://www.w3.org/2000/svg">
<rect x="-0.000915527" y="0.000244141" width="40" height="40" rx="20" fill="#F5F5F5"/>
<path fill-rule="evenodd" clip-rule="evenodd" d="M32.995 15.9726H28.1251C25.8589 15.9765 24.023 17.706 24.0189 19.8409C24.0158 21.9806 25.8538 23.7178 28.1251 23.7207H32.9991V24.0606C32.9991 27.7931 30.6572 30.0002 26.694 30.0002H16.3052C12.341 30.0002 9.99908 27.7931 9.99908 24.0606V15.9312C9.99908 12.1987 12.341 10.0002 16.3052 10.0002H26.6899C30.6531 10.0002 32.995 12.1987 32.995 15.9312V15.9726ZM15.4482 15.9651H21.9342H21.9383H21.9464C22.432 15.9632 22.8245 15.5905 22.8225 15.1322C22.8204 14.6747 22.4238 14.305 21.9383 14.3069H15.4482C14.9657 14.3088 14.5742 14.6776 14.5721 15.1331C14.5701 15.5905 14.9626 15.9632 15.4482 15.9651Z" fill="#959895"/>
<path opacity="0.4" d="M26.1421 20.3292C26.3826 21.3861 27.3416 22.1297 28.4365 22.1103H32.174C32.6295 22.1103 32.9991 21.7458 32.9991 21.2952V18.4824C32.9981 18.0327 32.6295 17.6672 32.174 17.6663H28.3486C27.1031 17.6701 26.0971 18.669 26.0991 19.8999C26.0991 20.044 26.1137 20.1881 26.1421 20.3292Z" fill="#959895"/>
<ellipse cx="28.3991" cy="19.8887" rx="1.15" ry="1.11111" fill="#959895"/>
</svg>
