<svg width="40" height="40" viewBox="0 0 40 40" fill="none" xmlns="http://www.w3.org/2000/svg">
<rect x="-0.000915527" y="0.000244141" width="40" height="40" rx="20" fill="#F5F5F5"/>
<path opacity="0.4" d="M19.9903 26.62L13.4985 29.8626C13.0083 30.1287 12.3968 29.951 12.1226 29.4628C12.0425 29.3093 12.0001 29.1387 11.9991 28.9653V21.7073C11.9991 22.4269 12.4048 22.871 13.4721 23.3685L19.9903 26.62Z" fill="#959895"/>
<path fill-rule="evenodd" clip-rule="evenodd" d="M16.8943 10.0002H23.0685C25.7764 10.0002 27.9726 11.0663 27.9991 13.7936V28.9671C27.998 29.1376 27.9556 29.3054 27.8756 29.4557C27.747 29.7009 27.525 29.8829 27.2606 29.96C26.9961 30.0371 26.7119 30.0025 26.4732 29.8643L19.9903 26.6218L13.4721 23.3703C12.4048 22.8728 11.9991 22.4286 11.9991 21.709V13.7936C11.9991 11.0663 14.1953 10.0002 16.8943 10.0002ZM16.2216 17.6206H23.7453C24.1788 17.6206 24.5303 17.2666 24.5303 16.83C24.5303 16.3933 24.1788 16.0393 23.7453 16.0393H16.2216C15.788 16.0393 15.4366 16.3933 15.4366 16.83C15.4366 17.2666 15.788 17.6206 16.2216 17.6206Z" fill="#959895"/>
</svg>
